<svg width="9" height="5" viewBox="0 0 9 5" fill="none" xmlns="http://www.w3.org/2000/svg">
<path d="M3.5656 4.25097L0.151883 0.837282C0.104794 0.790193 0.0677083 0.737615 0.040625 0.679548C0.0135417 0.621463 0 0.559235 0 0.492862C0 0.360118 0.0448865 0.244789 0.134659 0.146874C0.224413 0.0489586 0.342721 0 0.489585 0H7.68119C7.82805 0 7.94636 0.0494281 8.03611 0.148282C8.12588 0.247154 8.17077 0.362493 8.17077 0.494299C8.17077 0.527268 8.12007 0.641668 8.01867 0.837499L4.60517 4.251C4.5267 4.32947 4.44558 4.38676 4.36182 4.42287C4.27805 4.45898 4.1859 4.47704 4.08539 4.47704C3.98487 4.47704 3.89272 4.45898 3.80895 4.42287C3.72519 4.38676 3.64407 4.32946 3.5656 4.25097Z" fill="#333236"/>
</svg>
