<svg width="8" height="14" viewBox="0 0 8 14" fill="none" xmlns="http://www.w3.org/2000/svg">
<path d="M5.86747 6.93748L0.217944 1.28796C0.068907 1.13892 -0.00369301 0.961519 0.000144495 0.755756C0.00399449 0.549981 0.080438 0.372582 0.229476 0.223557C0.378513 0.0745194 0.555913 0 0.761676 0C0.967438 0 1.14484 0.0745194 1.29388 0.223557L7.03571 5.97692C7.17128 6.11249 7.27176 6.26441 7.33715 6.43268C7.40253 6.60095 7.43521 6.76922 7.43521 6.93748C7.43521 7.10574 7.40253 7.27401 7.33715 7.44229C7.27176 7.61055 7.17128 7.76247 7.03571 7.89804L1.28234 13.6514C1.13331 13.8004 0.957825 13.873 0.7559 13.8692C0.553988 13.8654 0.378513 13.7889 0.229476 13.6399C0.080438 13.4908 0.00591918 13.3134 0.00591918 13.1077C0.00591918 12.9019 0.080438 12.7245 0.229476 12.5755L5.86747 6.93748Z" fill="#333236"/>
</svg>
