<svg width="9" height="16" viewBox="0 0 9 16" fill="none" xmlns="http://www.w3.org/2000/svg">
<path d="M1.74182 7.70184L8.01907 13.9791C8.18467 14.1447 8.26533 14.3418 8.26107 14.5704C8.25679 14.7991 8.17185 14.9962 8.00626 15.1618C7.84066 15.3274 7.64355 15.4102 7.41492 15.4102C7.1863 15.4102 6.98919 15.3274 6.82359 15.1618L0.443778 8.76913C0.293139 8.6185 0.181494 8.4497 0.108842 8.26274C0.0362021 8.07577 -0.000116644 7.8888 -0.000116628 7.70184C-0.000116612 7.51488 0.0362022 7.32792 0.108842 7.14095C0.181494 6.95399 0.293139 6.78519 0.443778 6.63455L6.83641 0.241928C7.002 0.0763301 7.19698 -0.00433645 7.42134 -7.25527e-05C7.64569 0.0042047 7.84066 0.0891428 8.00626 0.25474C8.17186 0.420338 8.25465 0.617448 8.25465 0.846073C8.25465 1.0747 8.17186 1.27181 8.00626 1.43741L1.74182 7.70184Z" fill="#333236"/>
</svg>
