<svg width="15" height="15" viewBox="0 0 15 15" fill="none" xmlns="http://www.w3.org/2000/svg">
<path d="M6.45833 7.70829V10.4166C6.45833 10.594 6.51816 10.7425 6.63781 10.8621C6.75747 10.9818 6.90597 11.0416 7.08331 11.0416C7.26066 11.0416 7.40916 10.9818 7.52881 10.8621C7.64847 10.7425 7.70829 10.594 7.70829 10.4166V7.70829H10.4166C10.594 7.70829 10.7425 7.64847 10.8621 7.52881C10.9818 7.40916 11.0416 7.26066 11.0416 7.08331C11.0416 6.90597 10.9818 6.75747 10.8621 6.63781C10.7425 6.51816 10.594 6.45833 10.4166 6.45833H7.70829V3.74998C7.70829 3.57263 7.64847 3.42413 7.52881 3.30448C7.40916 3.18483 7.26066 3.125 7.08331 3.125C6.90597 3.125 6.75747 3.18483 6.63781 3.30448C6.51816 3.42413 6.45833 3.57263 6.45833 3.74998V6.45833H3.74998C3.57263 6.45833 3.42413 6.51816 3.30448 6.63781C3.18483 6.75747 3.125 6.90597 3.125 7.08331C3.125 7.26066 3.18483 7.40916 3.30448 7.52881C3.42413 7.64847 3.57263 7.70829 3.74998 7.70829H6.45833ZM1.50642 14.1666C1.08547 14.1666 0.729167 14.0208 0.4375 13.7291C0.145833 13.4375 0 13.0812 0 12.6602V1.50642C0 1.08547 0.145833 0.729167 0.4375 0.4375C0.729167 0.145833 1.08547 0 1.50642 0H12.6602C13.0812 0 13.4375 0.145833 13.7291 0.4375C14.0208 0.729167 14.1666 1.08547 14.1666 1.50642V12.6602C14.1666 13.0812 14.0208 13.4375 13.7291 13.7291C13.4375 14.0208 13.0812 14.1666 12.6602 14.1666H1.50642ZM1.50642 12.9166H12.6602C12.7243 12.9166 12.7831 12.8899 12.8365 12.8365C12.8899 12.7831 12.9166 12.7243 12.9166 12.6602V1.50642C12.9166 1.44231 12.8899 1.38354 12.8365 1.3301C12.7831 1.27669 12.7243 1.24998 12.6602 1.24998H1.50642C1.44231 1.24998 1.38353 1.27669 1.3301 1.3301C1.27669 1.38354 1.24998 1.44231 1.24998 1.50642V12.6602C1.24998 12.7243 1.27669 12.7831 1.3301 12.8365C1.38353 12.8899 1.44231 12.9166 1.50642 12.9166Z" fill="#787486"/>
</svg>
