<svg width="8" height="14" viewBox="0 0 8 14" fill="none" xmlns="http://www.w3.org/2000/svg">
<path d="M1.56774 6.93166L7.21727 12.5812C7.3663 12.7302 7.4389 12.9076 7.43507 13.1134C7.43122 13.3192 7.35477 13.4966 7.20574 13.6456C7.0567 13.7946 6.8793 13.8691 6.67354 13.8691C6.46777 13.8691 6.29037 13.7946 6.14134 13.6456L0.399504 7.89222C0.263929 7.75665 0.163448 7.60473 0.0980609 7.43646C0.0326859 7.26819 -1.22954e-06 7.09992 -1.21483e-06 6.93166C-1.20012e-06 6.7634 0.0326859 6.59513 0.098061 6.42685C0.163448 6.25859 0.263929 6.10667 0.399504 5.9711L6.15287 0.217733C6.30191 0.068696 6.47739 -0.00390451 6.67931 -6.69929e-05C6.88122 0.00378302 7.0567 0.0802271 7.20574 0.229265C7.35477 0.378302 7.42929 0.555702 7.42929 0.761464C7.42929 0.967227 7.35477 1.14463 7.20574 1.29366L1.56774 6.93166Z" fill="#333236"/>
</svg>
