<svg width="76" height="76" viewBox="0 0 76 76" fill="none" xmlns="http://www.w3.org/2000/svg">
<rect width="76" height="76" rx="6" fill="#3CC7C6" fill-opacity="0.08"/>
<path d="M36.6729 39.3271H30.9233C30.5509 39.3271 30.2366 39.199 29.9804 38.9429C29.7243 38.6867 29.5962 38.3724 29.5962 38C29.5962 37.6276 29.7243 37.3133 29.9804 37.0572C30.2366 36.801 30.5509 36.6729 30.9233 36.6729H36.6729V30.9233C36.6729 30.5509 36.801 30.2366 37.0572 29.9804C37.3133 29.7243 37.6276 29.5962 38 29.5962C38.3724 29.5962 38.6867 29.7243 38.9429 29.9804C39.199 30.2366 39.3271 30.5509 39.3271 30.9233V36.6729H45.0767C45.4491 36.6729 45.7634 36.801 46.0196 37.0572C46.2758 37.3133 46.4038 37.6276 46.4038 38C46.4038 38.3724 46.2758 38.6867 46.0196 38.9429C45.7634 39.199 45.4491 39.3271 45.0767 39.3271H39.3271V45.0767C39.3271 45.4491 39.199 45.7634 38.9429 46.0196C38.6867 46.2758 38.3724 46.4038 38 46.4038C37.6276 46.4038 37.3133 46.2758 37.0572 46.0196C36.801 45.7634 36.6729 45.4491 36.6729 45.0767V39.3271Z" fill="#3CC7C6"/>
</svg>
