<svg width="49" height="28" viewBox="0 0 49 28" fill="none" xmlns="http://www.w3.org/2000/svg">
<rect width="49" height="28" rx="4" fill="#F7DBF0"/>
<path d="M8.41504 10.6602H11.1221V8.73242H12.1338V14.3926H7.40332V8.73242H8.41504V10.6602ZM11.1221 13.5039V11.5215H8.41504V13.5039H11.1221ZM17.165 15.2539H16.1396V12.0137H14.5264V15.1855H13.5146V8.19922H14.5264V11.125H16.1396V7.9668H17.165V15.2539ZM17.165 20.1074H16.1123V16.8809H8.97559V15.9922H17.165V20.1074ZM21.8545 8.91016C22.3421 8.91016 22.7842 9.01497 23.1807 9.22461C23.5771 9.43424 23.9007 9.73047 24.1514 10.1133C24.4066 10.4961 24.5615 10.9382 24.6162 11.4395H25.9287V8.19922H26.9404V16.7031H25.9287V12.3418H24.6094C24.5456 12.8294 24.3861 13.2601 24.1309 13.6338C23.8802 14.0029 23.5566 14.29 23.1602 14.4951C22.7682 14.6956 22.333 14.7936 21.8545 14.7891C21.3167 14.7936 20.8359 14.6729 20.4121 14.4268C19.9928 14.1807 19.6647 13.8343 19.4277 13.3877C19.1908 12.9411 19.0745 12.4329 19.0791 11.8633C19.0745 11.2891 19.1908 10.7786 19.4277 10.332C19.6647 9.88086 19.9928 9.53223 20.4121 9.28613C20.8359 9.03548 21.3167 8.91016 21.8545 8.91016ZM21.8545 9.83984C21.5127 9.83984 21.2028 9.92643 20.9248 10.0996C20.6468 10.2728 20.4303 10.5143 20.2754 10.8242C20.1204 11.1296 20.0452 11.4759 20.0498 11.8633C20.0452 12.2507 20.1204 12.597 20.2754 12.9023C20.4303 13.2077 20.6468 13.4469 20.9248 13.6201C21.2028 13.7887 21.5127 13.873 21.8545 13.873C22.1963 13.873 22.5039 13.7887 22.7773 13.6201C23.0553 13.4469 23.2718 13.2077 23.4268 12.9023C23.5863 12.597 23.6683 12.2507 23.6729 11.8633C23.6683 11.4759 23.5863 11.1296 23.4268 10.8242C23.2718 10.5143 23.0553 10.2728 22.7773 10.0996C22.5039 9.92643 22.1963 9.83984 21.8545 9.83984ZM29.2646 17.0586H28.2393V7.95312H29.2646V17.0586ZM29.6338 19.8477H21.2939V15.8828H22.3604V18.9453H29.6338V19.8477ZM40.8584 14.6934H32.4639V9.08789H40.7354V9.97656H33.5303V13.8047H40.8584V14.6934ZM42.1709 18.4531H31.042V17.5508H42.1709V18.4531Z" fill="#D549B6"/>
</svg>
