<svg width="40" height="40" viewBox="0 0 40 40" fill="none" xmlns="http://www.w3.org/2000/svg">
<path d="M4 0.5H39.5V39.5H4C2.067 39.5 0.5 37.933 0.5 36V4C0.500001 2.067 2.067 0.5 4 0.5Z" fill="white" stroke="#D9D9D9"/>
<path d="M18.1126 19.9994L23.1344 25.0212C23.2669 25.1536 23.3314 25.3113 23.328 25.4942C23.3246 25.6771 23.2566 25.8348 23.1241 25.9673C22.9917 26.0998 22.834 26.166 22.6511 26.166C22.4682 26.166 22.3105 26.0998 22.178 25.9673L17.0742 20.8532C16.9537 20.7327 16.8643 20.5976 16.8062 20.4481C16.7481 20.2985 16.719 20.1489 16.719 19.9994C16.719 19.8498 16.7481 19.7002 16.8062 19.5506C16.8643 19.4011 16.9537 19.266 17.0742 19.1455L22.1883 14.0314C22.3207 13.899 22.4767 13.8344 22.6562 13.8378C22.8357 13.8413 22.9917 13.9092 23.1241 14.0417C23.2566 14.1742 23.3229 14.3318 23.3229 14.5147C23.3229 14.6976 23.2566 14.8553 23.1241 14.9878L18.1126 19.9994Z" fill="#D9D9D9"/>
</svg>
