<svg width="12" height="16" viewBox="0 0 12 16" fill="none" xmlns="http://www.w3.org/2000/svg">
<path d="M5.53125 15.922C5.38125 15.8699 5.2375 15.7919 5.1 15.6878L0.6 12.1756C0.4125 12.0325 0.26575 11.8504 0.15975 11.6293C0.0537499 11.4081 0.0005 11.174 0 10.9268V1.56098C0 1.13171 0.147 0.764358 0.441 0.458927C0.735 0.153496 1.088 0.000520325 1.5 0H10.5C10.9125 0 11.2657 0.152976 11.5597 0.458927C11.8537 0.764878 12.0005 1.13223 12 1.56098V10.9268C12 11.174 11.9467 11.4081 11.8403 11.6293C11.7337 11.8504 11.587 12.0325 11.4 12.1756L6.9 15.6878C6.7625 15.7919 6.61875 15.8699 6.46875 15.922C6.31875 15.974 6.1625 16 6 16C5.8375 16 5.68125 15.974 5.53125 15.922ZM5.2125 7.92195L4.1625 6.82927C4.0125 6.67317 3.8375 6.5985 3.6375 6.60527C3.4375 6.61203 3.2625 6.6867 3.1125 6.82927C2.9625 6.98537 2.8845 7.17086 2.8785 7.38576C2.8725 7.60065 2.94425 7.78589 3.09375 7.94146L4.6875 9.6C4.8375 9.7561 5.0125 9.83415 5.2125 9.83415C5.4125 9.83415 5.5875 9.7561 5.7375 9.6L8.925 6.28293C9.075 6.12683 9.14675 5.94472 9.14025 5.73659C9.13375 5.52846 9.062 5.34634 8.925 5.19024C8.775 5.03415 8.597 4.95298 8.391 4.94673C8.185 4.94049 8.00675 5.01515 7.85625 5.17073L5.2125 7.92195Z" fill="#3CC7C6"/>
</svg>
