<svg width="40" height="40" viewBox="0 0 40 40" fill="none" xmlns="http://www.w3.org/2000/svg">
<path d="M36 0.5C37.933 0.5 39.5 2.067 39.5 4V36C39.5 37.933 37.933 39.5 36 39.5H0.5V0.5H36Z" fill="white" stroke="#D9D9D9"/>
<path d="M21.8874 20.0006L16.8656 14.9788C16.7331 14.8464 16.6686 14.6887 16.672 14.5058C16.6754 14.3229 16.7434 14.1652 16.8759 14.0327C17.0083 13.9002 17.166 13.834 17.3489 13.834C17.5318 13.834 17.6895 13.9002 17.822 14.0327L22.9258 19.1468C23.0463 19.2673 23.1357 19.4024 23.1938 19.5519C23.2519 19.7015 23.281 19.8511 23.281 20.0006C23.281 20.1502 23.2519 20.2998 23.1938 20.4494C23.1357 20.5989 23.0463 20.734 22.9258 20.8545L17.8117 25.9686C17.6793 26.101 17.5233 26.1656 17.3438 26.1622C17.1643 26.1587 17.0083 26.0908 16.8759 25.9583C16.7434 25.8258 16.6771 25.6682 16.6771 25.4853C16.6771 25.3024 16.7434 25.1447 16.8759 25.0122L21.8874 20.0006Z" fill="#787486"/>
</svg>
