<svg width="13" height="15" viewBox="0 0 13 15" fill="none" xmlns="http://www.w3.org/2000/svg">
<path d="M1.35577 14.3365C0.976925 14.3365 0.65625 14.2052 0.39375 13.9427C0.13125 13.6802 0 13.3596 0 12.9807V2.94231C0 2.56346 0.13125 2.24278 0.39375 1.98028C0.65625 1.71778 0.976925 1.58653 1.35577 1.58653H2.39424V0.5769C2.39424 0.412488 2.44929 0.275231 2.55939 0.165131C2.66948 0.0550439 2.80674 0 2.97116 0C3.13558 0 3.27283 0.0550439 3.38293 0.165131C3.49302 0.275231 3.54806 0.412488 3.54806 0.5769V1.58653H9.23074V0.562482C9.23074 0.402869 9.28458 0.269219 9.39227 0.161531C9.49996 0.0538436 9.63361 0 9.79322 0C9.95283 0 10.0865 0.0538436 10.1942 0.161531C10.3019 0.269219 10.3557 0.402869 10.3557 0.562482V1.58653H11.3942C11.773 1.58653 12.0937 1.71778 12.3562 1.98028C12.6187 2.24278 12.75 2.56346 12.75 2.94231V12.9807C12.75 13.3596 12.6187 13.6802 12.3562 13.9427C12.0937 14.2052 11.773 14.3365 11.3942 14.3365H1.35577ZM1.35577 13.2115H11.3942C11.4519 13.2115 11.5048 13.1875 11.5529 13.1394C11.6009 13.0913 11.625 13.0384 11.625 12.9807V5.94231H1.12498V12.9807C1.12498 13.0384 1.14902 13.0913 1.19709 13.1394C1.24518 13.1875 1.29808 13.2115 1.35577 13.2115ZM1.12498 4.81733H11.625V2.94231C11.625 2.88461 11.6009 2.83171 11.5529 2.78363C11.5048 2.73555 11.4519 2.71151 11.3942 2.71151H1.35577C1.29808 2.71151 1.24518 2.73555 1.19709 2.78363C1.14902 2.83171 1.12498 2.88461 1.12498 2.94231V4.81733Z" fill="#787486"/>
</svg>
