<svg width="16" height="18" viewBox="0 0 16 18" fill="none" xmlns="http://www.w3.org/2000/svg">
<path d="M1.65706 17.5224C1.19402 17.5224 0.802083 17.362 0.48125 17.0411C0.160417 16.7203 0 16.3284 0 15.8653V3.59615C0 3.13311 0.160417 2.74118 0.48125 2.42034C0.802083 2.09951 1.19402 1.93909 1.65706 1.93909H2.9263V0.7051C2.9263 0.504152 2.99358 0.336394 3.12815 0.201827C3.2627 0.0672759 3.43046 0 3.63142 0C3.83237 0 4.00013 0.0672759 4.13469 0.201827C4.26925 0.336394 4.33652 0.504152 4.33652 0.7051V1.93909H11.282V0.687478C11.282 0.492396 11.3478 0.329045 11.4794 0.197427C11.6111 0.0658088 11.7744 0 11.9695 0C12.1646 0 12.3279 0.0658088 12.4595 0.197427C12.5912 0.329045 12.657 0.492396 12.657 0.687478V1.93909H13.9262C14.3893 1.93909 14.7812 2.09951 15.102 2.42034C15.4229 2.74118 15.5833 3.13311 15.5833 3.59615V15.8653C15.5833 16.3284 15.4229 16.7203 15.102 17.0411C14.7812 17.362 14.3893 17.5224 13.9262 17.5224H1.65706ZM1.65706 16.1474H13.9262C13.9968 16.1474 14.0614 16.118 14.1202 16.0593C14.1789 16.0005 14.2083 15.9358 14.2083 15.8653V7.26282H1.37498V15.8653C1.37498 15.9358 1.40436 16.0005 1.46311 16.0593C1.52189 16.118 1.58654 16.1474 1.65706 16.1474ZM1.37498 5.88784H14.2083V3.59615C14.2083 3.52563 14.1789 3.46098 14.1202 3.40221C14.0614 3.34345 13.9968 3.31407 13.9262 3.31407H1.65706C1.58654 3.31407 1.52189 3.34345 1.46311 3.40221C1.40436 3.46098 1.37498 3.52563 1.37498 3.59615V5.88784Z" fill="currentColor"/>
</svg>
