<svg width="14" height="10" viewBox="0 0 14 10" fill="none" xmlns="http://www.w3.org/2000/svg">
<path d="M4.60892 8.12758L12.5275 0.208998C12.6638 0.0726743 12.8257 0.00303754 13.0132 8.89256e-05C13.2006 -0.00284441 13.3654 0.0667924 13.5076 0.208998C13.6498 0.351188 13.7209 0.514538 13.7209 0.699047C13.7209 0.883542 13.6498 1.04689 13.5076 1.1891L5.18887 9.50783C5.02317 9.67353 4.82985 9.75638 4.60892 9.75638C4.38799 9.75638 4.19467 9.67353 4.02897 9.50783L0.201883 5.68077C0.0655599 5.54444 -0.00172341 5.38256 3.35332e-05 5.19511C0.00180576 5.00767 0.0737871 4.84286 0.215977 4.70066C0.358183 4.55846 0.521533 4.48736 0.706027 4.48736C0.890537 4.48736 1.05389 4.55846 1.19608 4.70066L4.60892 8.12758Z" fill="#787486"/>
</svg>
