<svg width="66" height="32" viewBox="0 0 66 32" fill="none" xmlns="http://www.w3.org/2000/svg">
<rect width="66" height="32" rx="16" fill="#3CC7C6" fill-opacity="0.08"/>
<circle cx="13" cy="16" r="3" fill="#3CC7C6"/>
<path d="M23.5576 21V11.1016H26.7568C27.7093 11.1016 28.5296 11.2998 29.2178 11.6963C29.9105 12.0882 30.4391 12.6556 30.8037 13.3984C31.1683 14.1367 31.3506 15.0163 31.3506 16.0371C31.3506 17.0671 31.166 17.9535 30.7969 18.6963C30.4277 19.4391 29.89 20.0088 29.1836 20.4053C28.4772 20.8018 27.6273 21 26.6338 21H23.5576ZM26.5518 19.9062C27.7458 19.9062 28.6436 19.569 29.2451 18.8945C29.8467 18.2201 30.1475 17.2676 30.1475 16.0371C30.1475 14.8203 29.8535 13.877 29.2656 13.207C28.6777 12.5326 27.8141 12.1953 26.6748 12.1953H24.7881V19.9062H26.5518ZM36.04 21.1504C35.3701 21.1504 34.7777 20.9932 34.2627 20.6787C33.7523 20.3597 33.3558 19.9108 33.0732 19.332C32.7907 18.7533 32.6494 18.0833 32.6494 17.3223C32.6494 16.5612 32.7907 15.8913 33.0732 15.3125C33.3558 14.7292 33.7523 14.278 34.2627 13.959C34.7777 13.64 35.3701 13.4805 36.04 13.4805C36.7054 13.4805 37.291 13.64 37.7969 13.959C38.3073 14.278 38.7015 14.7292 38.9795 15.3125C39.262 15.8913 39.4033 16.5612 39.4033 17.3223C39.4033 18.0833 39.262 18.7533 38.9795 19.332C38.7015 19.9108 38.3073 20.3597 37.7969 20.6787C37.291 20.9932 36.7054 21.1504 36.04 21.1504ZM36.04 20.1113C36.5186 20.1113 36.9219 19.986 37.25 19.7354C37.5781 19.4801 37.8219 19.1429 37.9814 18.7236C38.1455 18.2998 38.2275 17.8327 38.2275 17.3223C38.2275 16.8118 38.1455 16.3447 37.9814 15.9209C37.8219 15.4971 37.5781 15.1576 37.25 14.9023C36.9219 14.6471 36.5186 14.5195 36.04 14.5195C35.5524 14.5195 35.1423 14.6471 34.8096 14.9023C34.4814 15.1576 34.2354 15.4971 34.0713 15.9209C33.9072 16.3447 33.8252 16.8118 33.8252 17.3223C33.8252 17.8327 33.9072 18.2998 34.0713 18.7236C34.2354 19.1429 34.4814 19.4801 34.8096 19.7354C35.1423 19.986 35.5524 20.1113 36.04 20.1113ZM42.124 21H40.9482V13.5762H42.083V14.7383H42.1787C42.3656 14.3418 42.6367 14.0342 42.9922 13.8154C43.3522 13.5921 43.8057 13.4805 44.3525 13.4805C44.863 13.4805 45.305 13.5853 45.6787 13.7949C46.0524 14 46.3418 14.3122 46.5469 14.7314C46.752 15.1507 46.8545 15.668 46.8545 16.2832V21H45.6787V16.3652C45.6787 15.791 45.5306 15.3421 45.2344 15.0186C44.9382 14.695 44.5257 14.5332 43.9971 14.5332C43.6325 14.5332 43.3089 14.613 43.0264 14.7725C42.7438 14.9274 42.5228 15.1576 42.3633 15.4629C42.2038 15.7637 42.124 16.1237 42.124 16.543V21ZM51.8584 21.1504C51.152 21.1504 50.5368 20.9932 50.0127 20.6787C49.4886 20.3643 49.0853 19.9199 48.8027 19.3457C48.5247 18.7715 48.3857 18.1061 48.3857 17.3496C48.3857 16.5931 48.5247 15.9232 48.8027 15.3398C49.0853 14.752 49.4795 14.2962 49.9854 13.9727C50.4958 13.6445 51.0837 13.4805 51.749 13.4805C52.3096 13.4805 52.8314 13.6058 53.3145 13.8564C53.7975 14.1025 54.1895 14.5036 54.4902 15.0596C54.7956 15.611 54.9482 16.3197 54.9482 17.1855V17.6777H49.5615C49.5798 18.1927 49.6868 18.6325 49.8828 18.9971C50.0788 19.3617 50.3454 19.6396 50.6826 19.8311C51.0244 20.0179 51.4163 20.1113 51.8584 20.1113C52.2777 20.1113 52.6309 20.0339 52.918 19.8789C53.2096 19.7194 53.4307 19.5143 53.5811 19.2637H54.8389C54.7204 19.6374 54.5221 19.9678 54.2441 20.2549C53.9707 20.5374 53.6289 20.7585 53.2188 20.918C52.8132 21.0729 52.3597 21.1504 51.8584 21.1504ZM53.7588 16.6797C53.7588 16.265 53.6745 15.8958 53.5059 15.5723C53.3418 15.2441 53.1071 14.9867 52.8018 14.7998C52.4964 14.613 52.1455 14.5195 51.749 14.5195C51.3343 14.5195 50.9652 14.6175 50.6416 14.8135C50.3226 15.0094 50.0697 15.2738 49.8828 15.6064C49.7005 15.9346 49.5957 16.2923 49.5684 16.6797H53.7588Z" fill="#3CC7C6"/>
</svg>
