<svg width="96" height="96" viewBox="0 0 96 96" fill="none" xmlns="http://www.w3.org/2000/svg">
<g clip-path="url(#clip0_948_15040)">
<path d="M44 72C44 76.4 40.4 80 36 80C31.6 80 28 76.4 28 72C28 67.6 31.6 64 36 64C40.4 64 44 67.6 44 72ZM36 40C31.6 40 28 43.6 28 48C28 52.4 31.6 56 36 56C40.4 56 44 52.4 44 48C44 43.6 40.4 40 36 40ZM36 16C31.6 16 28 19.6 28 24C28 28.4 31.6 32 36 32C40.4 32 44 28.4 44 24C44 19.6 40.4 16 36 16ZM60 32C64.4 32 68 28.4 68 24C68 19.6 64.4 16 60 16C55.6 16 52 19.6 52 24C52 28.4 55.6 32 60 32ZM60 40C55.6 40 52 43.6 52 48C52 52.4 55.6 56 60 56C64.4 56 68 52.4 68 48C68 43.6 64.4 40 60 40ZM60 64C55.6 64 52 67.6 52 72C52 76.4 55.6 80 60 80C64.4 80 68 76.4 68 72C68 67.6 64.4 64 60 64Z" fill="black"/>
</g>
<defs>
<clipPath id="clip0_948_15040">
<rect width="96" height="96" fill="white"/>
</clipPath>
</defs>
</svg>
