<svg width="28" height="28" viewBox="0 0 28 28" fill="none" xmlns="http://www.w3.org/2000/svg">
<path d="M14 0C6.265 0 0 6.2685 0 14C0 20.1868 4.011 25.4333 9.5725 27.2825C10.2725 27.4143 10.5292 26.9815 10.5292 26.6093C10.5292 26.2768 10.5175 25.396 10.5117 24.2293C6.61733 25.074 5.796 22.351 5.796 22.351C5.159 20.7352 4.2385 20.3035 4.2385 20.3035C2.97033 19.4355 4.3365 19.453 4.3365 19.453C5.74233 19.551 6.48083 20.895 6.48083 20.895C7.72917 23.0358 9.758 22.4175 10.5583 22.0593C10.6843 21.154 11.0448 20.5368 11.445 20.1868C8.33583 19.8368 5.068 18.6328 5.068 13.2685C5.068 11.7402 5.6105 10.4918 6.50883 9.51183C6.35133 9.15833 5.87883 7.735 6.63133 5.8065C6.63133 5.8065 7.80383 5.43083 10.4813 7.2415C11.6013 6.93 12.7913 6.776 13.9813 6.769C15.1713 6.776 16.3613 6.93 17.4813 7.2415C20.1413 5.43083 21.3138 5.8065 21.3138 5.8065C22.0663 7.735 21.5938 9.15833 21.4538 9.51183C22.3463 10.4918 22.8888 11.7402 22.8888 13.2685C22.8888 18.6468 19.6163 19.831 16.5013 20.1752C16.9913 20.5952 17.4463 21.4538 17.4463 22.7652C17.4463 24.6388 17.4288 26.1438 17.4288 26.5988C17.4288 26.9663 17.6738 27.4038 18.3913 27.2638C23.9925 25.4275 28 20.1775 28 14C28 6.2685 21.7315 0 14 0Z" fill="white"/>
</svg>
