<svg width="37" height="28" viewBox="0 0 37 28" fill="none" xmlns="http://www.w3.org/2000/svg">
<rect width="37" height="28" rx="4" fill="#E7F7DB"/>
<path d="M10.3379 8.4043C10.9395 8.40885 11.4772 8.52507 11.9512 8.75293C12.4297 8.98079 12.8034 9.2998 13.0723 9.70996C13.3457 10.1156 13.4824 10.5781 13.4824 11.0977C13.4824 11.6172 13.3457 12.082 13.0723 12.4922C12.8034 12.8978 12.4297 13.2145 11.9512 13.4424C11.4772 13.6657 10.9395 13.7773 10.3379 13.7773C9.72721 13.7773 9.18262 13.6657 8.7041 13.4424C8.22559 13.2145 7.85189 12.8978 7.58301 12.4922C7.31413 12.082 7.17969 11.6172 7.17969 11.0977C7.17969 10.5781 7.31413 10.1156 7.58301 9.70996C7.85189 9.2998 8.22559 8.98079 8.7041 8.75293C9.18262 8.52507 9.72721 8.40885 10.3379 8.4043ZM10.3379 9.30664C9.93685 9.30664 9.57454 9.38411 9.25098 9.53906C8.93197 9.68945 8.68132 9.90137 8.49902 10.1748C8.31673 10.4437 8.22786 10.7513 8.23242 11.0977C8.22786 11.4486 8.31673 11.7607 8.49902 12.0342C8.68132 12.3076 8.93197 12.5218 9.25098 12.6768C9.57454 12.8271 9.93685 12.9023 10.3379 12.9023C10.7344 12.9023 11.0921 12.8271 11.4111 12.6768C11.7347 12.5218 11.9876 12.3076 12.1699 12.0342C12.3522 11.7607 12.4434 11.4486 12.4434 11.0977C12.4434 10.7513 12.3522 10.4437 12.1699 10.1748C11.9876 9.90137 11.7347 9.68945 11.4111 9.53906C11.0921 9.38411 10.7344 9.30664 10.3379 9.30664ZM16.9277 14.2012H15.8613V7.95312H16.9277V14.2012ZM16.9277 17.7148H10.1055V19.082H17.3652V19.9434H9.05273V16.9082H15.8613V15.6504H9.02539V14.7891H16.9277V17.7148ZM28.4941 11.6445H30.3262V12.5469H28.4941V16.8945H27.4277V7.9668H28.4941V11.6445ZM29.0547 19.8477H20.8926V16.0195H21.9453V18.9453H29.0547V19.8477ZM20.5645 10.8926H24.1055V8.8418H25.1719V14.8438H19.5117V8.8418H20.5645V10.8926ZM24.1055 13.9688V11.7402H20.5645V13.9688H24.1055Z" fill="#86D549"/>
</svg>
