<svg width="3" height="13" viewBox="0 0 3 13" fill="none" xmlns="http://www.w3.org/2000/svg">
<path d="M1.24998 12.1153C0.906243 12.1153 0.611979 11.9929 0.367187 11.7481C0.122396 11.5033 0 11.2091 0 10.8653C0 10.5216 0.122396 10.2273 0.367187 9.98254C0.611979 9.73775 0.906243 9.61535 1.24998 9.61535C1.59372 9.61535 1.88798 9.73775 2.13277 9.98254C2.37756 10.2273 2.49996 10.5216 2.49996 10.8653C2.49996 11.2091 2.37756 11.5033 2.13277 11.7481C1.88798 11.9929 1.59372 12.1153 1.24998 12.1153ZM1.24998 7.30762C0.906243 7.30762 0.611979 7.18523 0.367187 6.94044C0.122396 6.69565 0 6.40138 0 6.05765C0 5.71391 0.122396 5.41965 0.367187 5.17485C0.611979 4.93006 0.906243 4.80767 1.24998 4.80767C1.59372 4.80767 1.88798 4.93006 2.13277 5.17485C2.37756 5.41965 2.49996 5.71391 2.49996 6.05765C2.49996 6.40138 2.37756 6.69565 2.13277 6.94044C1.88798 7.18523 1.59372 7.30762 1.24998 7.30762ZM1.24998 2.49994C0.906243 2.49994 0.611979 2.37754 0.367187 2.13275C0.122396 1.88797 0 1.59371 0 1.24996C0 0.906223 0.122396 0.611959 0.367187 0.367167C0.611979 0.122389 0.906243 0 1.24998 0C1.59372 0 1.88798 0.122389 2.13277 0.367167C2.37756 0.611959 2.49996 0.906223 2.49996 1.24996C2.49996 1.59371 2.37756 1.88797 2.13277 2.13275C1.88798 2.37754 1.59372 2.49994 1.24998 2.49994Z" fill="black"/>
</svg>
