<svg width="109" height="32" viewBox="0 0 109 32" fill="none" xmlns="http://www.w3.org/2000/svg">
<rect width="109" height="32" rx="16" fill="#3CC7C6" fill-opacity="0.08"/>
<circle cx="13" cy="16" r="3" fill="#3CC7C6"/>
<path d="M31.502 16.0508C31.502 17.0762 31.3151 17.974 30.9414 18.7441C30.5677 19.5098 30.0482 20.0999 29.3828 20.5146C28.722 20.9294 27.9701 21.1367 27.127 21.1367C26.2793 21.1367 25.5251 20.9294 24.8643 20.5146C24.2035 20.0999 23.6862 19.5098 23.3125 18.7441C22.9388 17.974 22.752 17.0762 22.752 16.0508C22.752 15.0254 22.9388 14.1299 23.3125 13.3643C23.6862 12.5941 24.2035 12.0016 24.8643 11.5869C25.5251 11.1722 26.2793 10.9648 27.127 10.9648C27.9701 10.9648 28.722 11.1722 29.3828 11.5869C30.0482 12.0016 30.5677 12.5941 30.9414 13.3643C31.3151 14.1299 31.502 15.0254 31.502 16.0508ZM30.3125 16.0508C30.3125 15.2214 30.1735 14.5104 29.8955 13.918C29.6175 13.3255 29.237 12.8766 28.7539 12.5713C28.2754 12.266 27.7331 12.1133 27.127 12.1133C26.5208 12.1133 25.9762 12.266 25.4932 12.5713C25.0146 12.8766 24.6364 13.3255 24.3584 13.918C24.0804 14.5104 23.9414 15.2214 23.9414 16.0508C23.9414 16.8802 24.0804 17.5911 24.3584 18.1836C24.6364 18.776 25.0146 19.2249 25.4932 19.5303C25.9762 19.8356 26.5208 19.9883 27.127 19.9883C27.7331 19.9883 28.2754 19.8356 28.7539 19.5303C29.237 19.2249 29.6175 18.776 29.8955 18.1836C30.1735 17.5911 30.3125 16.8802 30.3125 16.0508ZM34.332 21H33.1562V13.5762H34.291V14.7383H34.3867C34.5736 14.3418 34.8447 14.0342 35.2002 13.8154C35.5602 13.5921 36.0137 13.4805 36.5605 13.4805C37.071 13.4805 37.513 13.5853 37.8867 13.7949C38.2604 14 38.5498 14.3122 38.7549 14.7314C38.96 15.1507 39.0625 15.668 39.0625 16.2832V21H37.8867V16.3652C37.8867 15.791 37.7386 15.3421 37.4424 15.0186C37.1462 14.695 36.7337 14.5332 36.2051 14.5332C35.8405 14.5332 35.5169 14.613 35.2344 14.7725C34.9518 14.9274 34.7308 15.1576 34.5713 15.4629C34.4118 15.7637 34.332 16.1237 34.332 16.543V21ZM44.6133 11.1016H47.9766C48.724 11.1016 49.3506 11.2383 49.8564 11.5117C50.3623 11.7852 50.7383 12.1589 50.9844 12.6328C51.2305 13.1022 51.3535 13.64 51.3535 14.2461C51.3535 14.8477 51.2305 15.3877 50.9844 15.8662C50.7383 16.3402 50.3623 16.7161 49.8564 16.9941C49.3551 17.2676 48.7331 17.4043 47.9902 17.4043H45.8438V21H44.6133V11.1016ZM47.9355 16.3105C48.6829 16.3105 49.2367 16.1237 49.5967 15.75C49.9567 15.3717 50.1367 14.8704 50.1367 14.2461C50.1367 13.6172 49.9567 13.1182 49.5967 12.749C49.2367 12.3799 48.6784 12.1953 47.9219 12.1953H45.8438V16.3105H47.9355ZM52.9258 13.5762H54.0605V14.7109H54.1426C54.2793 14.3327 54.5231 14.0296 54.874 13.8018C55.2249 13.5693 55.6191 13.4531 56.0566 13.4531C56.2845 13.4531 56.4896 13.4622 56.6719 13.4805V14.6699C56.6217 14.6517 56.5238 14.6335 56.3779 14.6152C56.2367 14.597 56.0977 14.5879 55.9609 14.5879C55.61 14.5879 55.2933 14.6631 55.0107 14.8135C54.7282 14.9639 54.5049 15.1712 54.3408 15.4355C54.1813 15.6999 54.1016 15.9961 54.1016 16.3242V21H52.9258V13.5762ZM60.6094 21.1504C59.9395 21.1504 59.347 20.9932 58.832 20.6787C58.3216 20.3597 57.9251 19.9108 57.6426 19.332C57.36 18.7533 57.2188 18.0833 57.2188 17.3223C57.2188 16.5612 57.36 15.8913 57.6426 15.3125C57.9251 14.7292 58.3216 14.278 58.832 13.959C59.347 13.64 59.9395 13.4805 60.6094 13.4805C61.2747 13.4805 61.8604 13.64 62.3662 13.959C62.8766 14.278 63.2708 14.7292 63.5488 15.3125C63.8314 15.8913 63.9727 16.5612 63.9727 17.3223C63.9727 18.0833 63.8314 18.7533 63.5488 19.332C63.2708 19.9108 62.8766 20.3597 62.3662 20.6787C61.8604 20.9932 61.2747 21.1504 60.6094 21.1504ZM60.6094 20.1113C61.0879 20.1113 61.4912 19.986 61.8193 19.7354C62.1475 19.4801 62.3913 19.1429 62.5508 18.7236C62.7148 18.2998 62.7969 17.8327 62.7969 17.3223C62.7969 16.8118 62.7148 16.3447 62.5508 15.9209C62.3913 15.4971 62.1475 15.1576 61.8193 14.9023C61.4912 14.6471 61.0879 14.5195 60.6094 14.5195C60.1217 14.5195 59.7116 14.6471 59.3789 14.9023C59.0508 15.1576 58.8047 15.4971 58.6406 15.9209C58.4766 16.3447 58.3945 16.8118 58.3945 17.3223C58.3945 17.8327 58.4766 18.2998 58.6406 18.7236C58.8047 19.1429 59.0508 19.4801 59.3789 19.7354C59.7116 19.986 60.1217 20.1113 60.6094 20.1113ZM68.5254 23.9395C67.9284 23.9395 67.3997 23.8551 66.9395 23.6865C66.4837 23.5179 66.1214 23.2718 65.8525 22.9482C65.5837 22.6247 65.4264 22.235 65.3809 21.7793H66.6113C66.6934 22.153 66.8984 22.4355 67.2266 22.627C67.5592 22.8184 67.9922 22.9141 68.5254 22.9141C69.1816 22.9141 69.6875 22.7682 70.043 22.4766C70.3984 22.1849 70.5762 21.7383 70.5762 21.1367V19.6328H70.4805C70.3483 19.8561 70.2093 20.0521 70.0635 20.2207C69.9176 20.3893 69.6989 20.5443 69.4072 20.6855C69.1201 20.8223 68.7578 20.8906 68.3203 20.8906C67.7142 20.8906 67.1719 20.7425 66.6934 20.4463C66.2148 20.1501 65.8389 19.724 65.5654 19.168C65.2965 18.6074 65.1621 17.9466 65.1621 17.1855C65.1621 16.4382 65.2965 15.7842 65.5654 15.2236C65.8343 14.6631 66.208 14.2324 66.6865 13.9316C67.165 13.6309 67.7142 13.4805 68.334 13.4805C68.7669 13.4805 69.127 13.5511 69.4141 13.6924C69.7057 13.8337 69.9131 13.9795 70.0361 14.1299C70.1637 14.2757 70.321 14.4831 70.5078 14.752H70.6035V13.5762H71.752V21.2051C71.752 21.8203 71.6107 22.3307 71.3281 22.7363C71.0501 23.1465 70.6696 23.4495 70.1865 23.6455C69.7035 23.8415 69.1497 23.9395 68.5254 23.9395ZM68.4844 19.8379C69.1589 19.8379 69.6807 19.61 70.0498 19.1543C70.4189 18.694 70.6035 18.0514 70.6035 17.2266C70.6035 16.6934 70.5215 16.224 70.3574 15.8184C70.1934 15.4128 69.9518 15.0983 69.6328 14.875C69.3184 14.6471 68.9355 14.5332 68.4844 14.5332C68.0241 14.5332 67.6344 14.6517 67.3154 14.8887C66.9964 15.1257 66.7549 15.4492 66.5908 15.8594C66.4313 16.265 66.3516 16.7207 66.3516 17.2266C66.3516 17.7461 66.4313 18.2018 66.5908 18.5938C66.7549 18.9857 66.9964 19.291 67.3154 19.5098C67.6344 19.7285 68.0241 19.8379 68.4844 19.8379ZM73.625 13.5762H74.7598V14.7109H74.8418C74.9785 14.3327 75.2223 14.0296 75.5732 13.8018C75.9242 13.5693 76.3184 13.4531 76.7559 13.4531C76.9837 13.4531 77.1888 13.4622 77.3711 13.4805V14.6699C77.321 14.6517 77.223 14.6335 77.0771 14.6152C76.9359 14.597 76.7969 14.5879 76.6602 14.5879C76.3092 14.5879 75.9925 14.6631 75.71 14.8135C75.4274 14.9639 75.2041 15.1712 75.04 15.4355C74.8805 15.6999 74.8008 15.9961 74.8008 16.3242V21H73.625V13.5762ZM81.3906 21.1504C80.6842 21.1504 80.069 20.9932 79.5449 20.6787C79.0208 20.3643 78.6175 19.9199 78.335 19.3457C78.057 18.7715 77.918 18.1061 77.918 17.3496C77.918 16.5931 78.057 15.9232 78.335 15.3398C78.6175 14.752 79.0117 14.2962 79.5176 13.9727C80.028 13.6445 80.6159 13.4805 81.2812 13.4805C81.8418 13.4805 82.3636 13.6058 82.8467 13.8564C83.3298 14.1025 83.7217 14.5036 84.0225 15.0596C84.3278 15.611 84.4805 16.3197 84.4805 17.1855V17.6777H79.0938C79.112 18.1927 79.2191 18.6325 79.415 18.9971C79.611 19.3617 79.8776 19.6396 80.2148 19.8311C80.5566 20.0179 80.9486 20.1113 81.3906 20.1113C81.8099 20.1113 82.1631 20.0339 82.4502 19.8789C82.7419 19.7194 82.9629 19.5143 83.1133 19.2637H84.3711C84.2526 19.6374 84.0544 19.9678 83.7764 20.2549C83.5029 20.5374 83.1611 20.7585 82.751 20.918C82.3454 21.0729 81.8919 21.1504 81.3906 21.1504ZM83.291 16.6797C83.291 16.265 83.2067 15.8958 83.0381 15.5723C82.874 15.2441 82.6393 14.9867 82.334 14.7998C82.0286 14.613 81.6777 14.5195 81.2812 14.5195C80.8665 14.5195 80.4974 14.6175 80.1738 14.8135C79.8548 15.0094 79.6019 15.2738 79.415 15.6064C79.2327 15.9346 79.1279 16.2923 79.1006 16.6797H83.291ZM90.1406 15.5039C90.054 15.1803 89.8854 14.9297 89.6348 14.752C89.3887 14.5697 89.056 14.4785 88.6367 14.4785C88.3359 14.4785 88.0648 14.5286 87.8232 14.6289C87.5863 14.7246 87.3994 14.859 87.2627 15.0322C87.1305 15.2008 87.0645 15.39 87.0645 15.5996C87.0645 15.8457 87.167 16.0553 87.3721 16.2285C87.5817 16.4017 87.903 16.5384 88.3359 16.6387L89.4434 16.9121C90.1087 17.0716 90.6055 17.3177 90.9336 17.6504C91.2617 17.9785 91.4258 18.4023 91.4258 18.9219C91.4258 19.3548 91.3096 19.7399 91.0771 20.0771C90.8493 20.4098 90.5166 20.6719 90.0791 20.8633C89.6416 21.0547 89.1198 21.1504 88.5137 21.1504C87.6797 21.1504 87.0189 20.9727 86.5312 20.6172C86.0436 20.2572 85.752 19.7376 85.6562 19.0586H86.8867C86.9551 19.4186 87.1214 19.6875 87.3857 19.8652C87.6501 20.0384 88.0169 20.125 88.4863 20.125C89.015 20.125 89.4342 20.0225 89.7441 19.8174C90.054 19.6123 90.209 19.3366 90.209 18.9902C90.209 18.7259 90.111 18.5072 89.915 18.334C89.7191 18.1562 89.4115 18.0195 88.9922 17.9238L87.8711 17.6641C87.224 17.5137 86.7318 17.2676 86.3945 16.9258C86.0573 16.584 85.8887 16.1647 85.8887 15.668C85.8887 15.2487 86.0026 14.8727 86.2305 14.54C86.4629 14.2074 86.7865 13.9476 87.2012 13.7607C87.6204 13.5739 88.099 13.4805 88.6367 13.4805C89.138 13.4805 89.5801 13.5648 89.9629 13.7334C90.3457 13.902 90.6488 14.139 90.8721 14.4443C91.0999 14.7497 91.2389 15.1029 91.2891 15.5039H90.1406ZM97.0859 15.5039C96.9993 15.1803 96.8307 14.9297 96.5801 14.752C96.334 14.5697 96.0013 14.4785 95.582 14.4785C95.2812 14.4785 95.0101 14.5286 94.7686 14.6289C94.5316 14.7246 94.3447 14.859 94.208 15.0322C94.0758 15.2008 94.0098 15.39 94.0098 15.5996C94.0098 15.8457 94.1123 16.0553 94.3174 16.2285C94.527 16.4017 94.8483 16.5384 95.2812 16.6387L96.3887 16.9121C97.054 17.0716 97.5508 17.3177 97.8789 17.6504C98.207 17.9785 98.3711 18.4023 98.3711 18.9219C98.3711 19.3548 98.2549 19.7399 98.0225 20.0771C97.7946 20.4098 97.4619 20.6719 97.0244 20.8633C96.5869 21.0547 96.0651 21.1504 95.459 21.1504C94.625 21.1504 93.9642 20.9727 93.4766 20.6172C92.9889 20.2572 92.6973 19.7376 92.6016 19.0586H93.832C93.9004 19.4186 94.0667 19.6875 94.3311 19.8652C94.5954 20.0384 94.9622 20.125 95.4316 20.125C95.9603 20.125 96.3796 20.0225 96.6895 19.8174C96.9993 19.6123 97.1543 19.3366 97.1543 18.9902C97.1543 18.7259 97.0563 18.5072 96.8604 18.334C96.6644 18.1562 96.3568 18.0195 95.9375 17.9238L94.8164 17.6641C94.1693 17.5137 93.6771 17.2676 93.3398 16.9258C93.0026 16.584 92.834 16.1647 92.834 15.668C92.834 15.2487 92.9479 14.8727 93.1758 14.54C93.4082 14.2074 93.7318 13.9476 94.1465 13.7607C94.5658 13.5739 95.0443 13.4805 95.582 13.4805C96.0833 13.4805 96.5254 13.5648 96.9082 13.7334C97.291 13.902 97.5941 14.139 97.8174 14.4443C98.0452 14.7497 98.1842 15.1029 98.2344 15.5039H97.0859Z" fill="#3CC7C6"/>
</svg>
