<svg width="61" height="28" viewBox="0 0 61 28" fill="none" xmlns="http://www.w3.org/2000/svg">
<rect width="61" height="28" rx="4" fill="#F9EEE3"/>
<path d="M17.9219 18.5488H6.79297V17.6328H17.9219V18.5488ZM16.8555 10.0723H14.9277V14.3242H16.8281V15.1992H7.80469V14.3242H9.70508V10.0723H7.77734V9.18359H16.8555V10.0723ZM13.875 14.3242V10.0723H10.7715V14.3242H13.875ZM30.0215 18.6035H18.8926V17.7012H23.8965V15.4043H20.2871V11.6582H27.5605V9.74414H20.2598V8.85547H28.6133V12.5332H21.3535V14.5156H28.9004V15.4043H24.9492V17.7012H30.0215V18.6035ZM38.9492 15.2812H37.9102V11.9863H36.0508V11.0977H37.9102V8.22656H38.9492V15.2812ZM34.5879 10.5645C34.5879 11.0111 34.6836 11.4577 34.875 11.9043C35.071 12.3464 35.3512 12.7497 35.7158 13.1143C36.085 13.4743 36.5202 13.7591 37.0215 13.9688L36.4609 14.7891C35.9049 14.5566 35.4264 14.2285 35.0254 13.8047C34.6243 13.3809 34.3167 12.8978 34.1025 12.3555C33.8838 12.9661 33.5625 13.5107 33.1387 13.9893C32.7148 14.4632 32.209 14.8301 31.6211 15.0898L31.0469 14.2422C31.5618 14.0234 32.0085 13.7204 32.3867 13.333C32.765 12.9411 33.0521 12.5036 33.248 12.0205C33.4486 11.5374 33.5488 11.0521 33.5488 10.5645V9.83984H31.2793V8.95117H36.7344V9.83984H34.5879V10.5645ZM41.3145 15.3906H40.2891V7.95312H41.3145V15.3906ZM41.3145 20.1074H40.2617V16.7988H33.125V15.9238H41.3145V20.1074ZM52.9355 15.4043H44.5273V9.00586H52.7988V9.9082H45.6211V11.7129H52.5391V12.5742H45.6211V14.5293H52.9355V15.4043ZM54.2207 18.5215H43.0918V17.6328H54.2207V18.5215Z" fill="#D58D49"/>
</svg>
