<svg width="25" height="28" viewBox="0 0 25 28" fill="none" xmlns="http://www.w3.org/2000/svg">
<rect width="25" height="28" rx="4" fill="#DBE6F7"/>
<path d="M11.0029 9.92188C11.0029 10.4642 11.1305 10.9883 11.3857 11.4941C11.6455 11.9954 12.0033 12.4375 12.459 12.8203C12.9193 13.2031 13.4411 13.4948 14.0244 13.6953L13.4365 14.543C12.7666 14.2969 12.1764 13.9346 11.666 13.4561C11.1556 12.973 10.766 12.4147 10.4971 11.7812C10.2373 12.5013 9.84538 13.1302 9.32129 13.668C8.7972 14.2057 8.18197 14.6113 7.47559 14.8848L6.90137 14.0234C7.50293 13.7956 8.03158 13.472 8.4873 13.0527C8.94759 12.6335 9.30534 12.1481 9.56055 11.5967C9.81576 11.0407 9.94564 10.4551 9.9502 9.83984V8.58203H11.0029V9.92188ZM16.4443 11.125H18.2764V12.0273H16.4443V15.3496H15.3779V7.95312H16.4443V11.125ZM12.5479 15.6641C13.3773 15.6641 14.0928 15.7507 14.6943 15.9238C15.2959 16.097 15.7562 16.3499 16.0752 16.6826C16.3942 17.0107 16.5537 17.4049 16.5537 17.8652C16.5537 18.3346 16.3942 18.7357 16.0752 19.0684C15.7562 19.401 15.2959 19.6517 14.6943 19.8203C14.0973 19.9935 13.3818 20.0801 12.5479 20.0801C11.7139 20.0801 10.9938 19.9935 10.3877 19.8203C9.78613 19.6471 9.32357 19.3942 9 19.0615C8.67643 18.7334 8.51465 18.3346 8.51465 17.8652C8.51465 17.4049 8.67643 17.0107 9 16.6826C9.32357 16.3499 9.78841 16.097 10.3945 15.9238C11.0007 15.7507 11.7184 15.6641 12.5479 15.6641ZM12.5479 16.5254C11.9417 16.5254 11.4154 16.5801 10.9688 16.6895C10.5221 16.7943 10.1803 16.9492 9.94336 17.1543C9.70638 17.3548 9.59017 17.5918 9.59473 17.8652C9.59017 18.1478 9.70638 18.3916 9.94336 18.5967C10.1803 18.8018 10.5199 18.9567 10.9619 19.0615C11.4085 19.1709 11.9372 19.2279 12.5479 19.2324C13.4775 19.2233 14.2044 19.1003 14.7285 18.8633C15.2526 18.6263 15.5146 18.2936 15.5146 17.8652C15.5146 17.5872 15.3962 17.348 15.1592 17.1475C14.9222 16.9469 14.5804 16.7943 14.1338 16.6895C13.6872 16.5801 13.1585 16.5254 12.5479 16.5254Z" fill="#4981D5"/>
</svg>
