<svg width="69" height="32" viewBox="0 0 69 32" fill="none" xmlns="http://www.w3.org/2000/svg">
<rect width="69" height="32" rx="16" fill="#3CC7C6" fill-opacity="0.08"/>
<circle cx="13" cy="16" r="3" fill="#3CC7C6"/>
<path d="M22.8086 11.1016H30.2734V12.1953H27.1699V21H25.9258V12.1953H22.8086V11.1016ZM33.7188 21.1504C33.0488 21.1504 32.4564 20.9932 31.9414 20.6787C31.431 20.3597 31.0345 19.9108 30.752 19.332C30.4694 18.7533 30.3281 18.0833 30.3281 17.3223C30.3281 16.5612 30.4694 15.8913 30.752 15.3125C31.0345 14.7292 31.431 14.278 31.9414 13.959C32.4564 13.64 33.0488 13.4805 33.7188 13.4805C34.3841 13.4805 34.9697 13.64 35.4756 13.959C35.986 14.278 36.3802 14.7292 36.6582 15.3125C36.9408 15.8913 37.082 16.5612 37.082 17.3223C37.082 18.0833 36.9408 18.7533 36.6582 19.332C36.3802 19.9108 35.986 20.3597 35.4756 20.6787C34.9697 20.9932 34.3841 21.1504 33.7188 21.1504ZM33.7188 20.1113C34.1973 20.1113 34.6006 19.986 34.9287 19.7354C35.2568 19.4801 35.5007 19.1429 35.6602 18.7236C35.8242 18.2998 35.9062 17.8327 35.9062 17.3223C35.9062 16.8118 35.8242 16.3447 35.6602 15.9209C35.5007 15.4971 35.2568 15.1576 34.9287 14.9023C34.6006 14.6471 34.1973 14.5195 33.7188 14.5195C33.2311 14.5195 32.821 14.6471 32.4883 14.9023C32.1602 15.1576 31.9141 15.4971 31.75 15.9209C31.5859 16.3447 31.5039 16.8118 31.5039 17.3223C31.5039 17.8327 31.5859 18.2998 31.75 18.7236C31.9141 19.1429 32.1602 19.4801 32.4883 19.7354C32.821 19.986 33.2311 20.1113 33.7188 20.1113ZM42.291 21V11.1016H45.4902C46.4427 11.1016 47.263 11.2998 47.9512 11.6963C48.6439 12.0882 49.1725 12.6556 49.5371 13.3984C49.9017 14.1367 50.084 15.0163 50.084 16.0371C50.084 17.0671 49.8994 17.9535 49.5303 18.6963C49.1611 19.4391 48.6234 20.0088 47.917 20.4053C47.2106 20.8018 46.3607 21 45.3672 21H42.291ZM45.2852 19.9062C46.4792 19.9062 47.377 19.569 47.9785 18.8945C48.5801 18.2201 48.8809 17.2676 48.8809 16.0371C48.8809 14.8203 48.5869 13.877 47.999 13.207C47.4111 12.5326 46.5475 12.1953 45.4082 12.1953H43.5215V19.9062H45.2852ZM54.7734 21.1504C54.1035 21.1504 53.5111 20.9932 52.9961 20.6787C52.4857 20.3597 52.0892 19.9108 51.8066 19.332C51.5241 18.7533 51.3828 18.0833 51.3828 17.3223C51.3828 16.5612 51.5241 15.8913 51.8066 15.3125C52.0892 14.7292 52.4857 14.278 52.9961 13.959C53.5111 13.64 54.1035 13.4805 54.7734 13.4805C55.4388 13.4805 56.0244 13.64 56.5303 13.959C57.0407 14.278 57.4349 14.7292 57.7129 15.3125C57.9954 15.8913 58.1367 16.5612 58.1367 17.3223C58.1367 18.0833 57.9954 18.7533 57.7129 19.332C57.4349 19.9108 57.0407 20.3597 56.5303 20.6787C56.0244 20.9932 55.4388 21.1504 54.7734 21.1504ZM54.7734 20.1113C55.252 20.1113 55.6553 19.986 55.9834 19.7354C56.3115 19.4801 56.5553 19.1429 56.7148 18.7236C56.8789 18.2998 56.9609 17.8327 56.9609 17.3223C56.9609 16.8118 56.8789 16.3447 56.7148 15.9209C56.5553 15.4971 56.3115 15.1576 55.9834 14.9023C55.6553 14.6471 55.252 14.5195 54.7734 14.5195C54.2858 14.5195 53.8757 14.6471 53.543 14.9023C53.2148 15.1576 52.9688 15.4971 52.8047 15.9209C52.6406 16.3447 52.5586 16.8118 52.5586 17.3223C52.5586 17.8327 52.6406 18.2998 52.8047 18.7236C52.9688 19.1429 53.2148 19.4801 53.543 19.7354C53.8757 19.986 54.2858 20.1113 54.7734 20.1113Z" fill="#3CC7C6"/>
</svg>
