<svg width="22" height="28" viewBox="0 0 22 28" fill="none" xmlns="http://www.w3.org/2000/svg">
<path d="M7.74065 21.2783L0 21.6787L11.0006 27.5009L7.74065 21.2783Z" fill="url(#paint0_linear_64_16321)"/>
<path d="M21.9999 3.74855C21.9999 1.67759 20.2973 0 18.1959 0H3.80443C1.70401 0 0.000244141 1.67778 0.000244141 3.74855V17.9299V21.6784H18.1959C20.2975 21.6784 21.9999 20.0009 21.9999 17.9299V3.74855Z" fill="#3CC7C6"/>
<path d="M15.676 9.58838C14.5178 9.58838 13.4586 10.2318 12.9379 11.2522L9.42651 18.1349L10.4808 18.7352C10.796 18.9145 11.1858 18.9145 11.5022 18.7352L17.6749 15.2246C17.9913 15.0455 18.185 14.7126 18.185 14.3531V10.091C18.185 9.81408 17.956 9.58838 17.6749 9.58838H15.676Z" fill="white"/>
<path d="M10.1868 11.0471C10.4408 10.5514 10.2377 9.94525 9.73464 9.69634C9.59176 9.6242 9.43357 9.58823 9.2742 9.58823H7.29527C6.59029 9.59171 6.01543 9.03084 6.01171 8.33613C6.01171 8.293 6.01406 8.25007 6.0176 8.20713C6.1014 7.54859 6.67528 7.0587 7.34944 7.07146H17.7159C17.8588 7.07146 17.9734 6.95639 17.9722 6.81559C17.9722 6.75273 17.9473 6.69123 17.9037 6.64443C17.8364 6.57461 17.7597 6.51523 17.6747 6.46766L11.5081 2.95854C11.1915 2.77945 10.8033 2.77945 10.4867 2.95854L4.31991 6.46766C4.00334 6.64694 3.80864 6.9796 3.80982 7.33913V14.3527C3.80845 14.7123 4.00334 15.0451 4.31991 15.2242L6.74848 16.6082C6.99303 16.7478 7.30587 16.6639 7.4462 16.4243C7.45111 16.415 7.45582 16.4057 7.46053 16.3964L10.1868 11.0471Z" fill="white"/>
<defs>
<linearGradient id="paint0_linear_64_16321" x1="4.11479" y1="21.7501" x2="8.55651" y2="26.8337" gradientUnits="userSpaceOnUse">
<stop stop-color="#009E9D"/>
<stop offset="1" stop-color="#42E4E3"/>
</linearGradient>
</defs>
</svg>
