<svg width="196" height="209" viewBox="0 0 196 209" fill="none" xmlns="http://www.w3.org/2000/svg">
<path d="M84.1854 98.1504L49 99.9971L99.0036 126.854L84.1854 98.1504Z" fill="url(#paint0_linear_52_15331)"/>
<path d="M149 17.2912C149 7.73829 141.261 0 131.709 0H66.292C56.7445 0 49 7.73918 49 17.2912V82.7062V99.9973H131.709C141.262 99.9973 149 92.259 149 82.7062V17.2912Z" fill="#3CC7C6"/>
<path d="M120.255 44.2285C114.991 44.2285 110.176 47.1966 107.809 51.9035L91.8484 83.6515L96.6409 86.4206C98.0736 87.2476 99.8454 87.2476 101.283 86.4206L129.342 70.2268C130.78 69.4007 131.66 67.8653 131.66 66.2069V46.5471C131.66 45.2696 130.619 44.2285 129.342 44.2285H120.255Z" fill="white"/>
<path d="M95.3048 50.9573C96.4592 48.6708 95.5359 45.8749 93.2494 44.7267C92.5999 44.394 91.8808 44.2281 91.1564 44.2281H82.1611C78.9566 44.2441 76.3436 41.6569 76.3266 38.4524C76.3266 38.2535 76.3374 38.0554 76.3534 37.8574C76.7344 34.8197 79.3429 32.56 82.4074 32.6188H129.528C130.178 32.6188 130.699 32.088 130.694 31.4386C130.694 31.1486 130.58 30.8649 130.382 30.649C130.076 30.327 129.727 30.0531 129.341 29.8336L101.311 13.6469C99.8716 12.8208 98.107 12.8208 96.668 13.6469L68.6365 29.8336C67.1975 30.6606 66.3126 32.1951 66.3179 33.8535V66.2055C66.3117 67.864 67.1975 69.3993 68.6365 70.2254L79.6757 76.6095C80.7873 77.2536 82.2093 76.8664 82.8472 75.7611C82.8695 75.7183 82.8909 75.6754 82.9123 75.6326L95.3048 50.9573Z" fill="white"/>
<path d="M19.085 194.404C17.985 194.404 17.105 194.11 16.445 193.524C15.785 192.937 15.455 192.13 15.455 191.104V161.019H4.84C3.77667 161.019 2.93333 160.78 2.31 160.304C1.72333 159.79 1.43 159.094 1.43 158.214C1.43 157.297 1.72333 156.6 2.31 156.124C2.89667 155.61 3.74 155.354 4.84 155.354H33.385C34.485 155.354 35.3283 155.61 35.915 156.124C36.5017 156.6 36.795 157.297 36.795 158.214C36.795 159.094 36.4833 159.79 35.86 160.304C35.2733 160.78 34.4483 161.019 33.385 161.019H22.77V191.104C22.77 192.094 22.4217 192.9 21.725 193.524C21.065 194.11 20.185 194.404 19.085 194.404ZM43.5007 194.404C41.2274 194.404 39.2107 194.019 37.4507 193.249C35.7274 192.479 34.3707 191.415 33.3807 190.059C32.4274 188.665 31.9507 187.07 31.9507 185.274C31.9507 182.56 33.069 180.397 35.3057 178.784C37.579 177.17 40.6407 176.364 44.4907 176.364C47.8274 176.364 50.504 177.079 52.5207 178.509V177.189C52.5207 175.465 51.989 174.145 50.9257 173.229C49.8624 172.312 48.3224 171.854 46.3057 171.854C43.299 171.854 40.714 172.495 38.5507 173.779C37.634 174.292 36.8457 174.549 36.1857 174.549C35.379 174.549 34.664 174.182 34.0407 173.449C33.6374 172.935 33.4357 172.404 33.4357 171.854C33.4357 170.937 33.9124 170.13 34.8657 169.434C36.1857 168.48 37.854 167.729 39.8707 167.179C41.8874 166.629 44.014 166.354 46.2507 166.354C50.504 166.354 53.8407 167.325 56.2607 169.269C58.7174 171.175 59.9457 173.815 59.9457 177.189V191.324C59.9457 192.277 59.6157 193.029 58.9557 193.579C58.3324 194.129 57.4707 194.404 56.3707 194.404C55.234 194.404 54.354 194.147 53.7307 193.634C53.1074 193.12 52.7957 192.387 52.7957 191.434V190.829C50.7057 193.212 47.6074 194.404 43.5007 194.404ZM45.2057 189.344C47.5157 189.344 49.3124 188.995 50.5957 188.299C51.9157 187.565 52.5757 186.557 52.5757 185.274C52.5757 184.064 51.9157 183.092 50.5957 182.359C49.2757 181.625 47.5157 181.259 45.3157 181.259C43.3357 181.259 41.7957 181.607 40.6957 182.304C39.6324 183 39.1007 183.99 39.1007 185.274C39.1007 186.557 39.6324 187.565 40.6957 188.299C41.759 188.995 43.2624 189.344 45.2057 189.344ZM78.0923 194.404C72.1889 194.404 67.8439 192.699 65.0573 189.289C64.4706 188.519 64.1773 187.822 64.1773 187.199C64.1773 186.319 64.6356 185.549 65.5523 184.889C66.1756 184.485 66.7806 184.284 67.3673 184.284C68.1739 184.284 68.9256 184.632 69.6223 185.329C70.8689 186.575 72.0789 187.474 73.2523 188.024C74.4623 188.537 75.9473 188.794 77.7073 188.794C79.2106 188.794 80.4756 188.592 81.5023 188.189C82.5289 187.785 83.0423 187.29 83.0423 186.704C83.0423 185.97 82.6206 185.347 81.7773 184.834C80.9339 184.32 79.2289 183.66 76.6623 182.854C72.6289 181.607 69.7689 180.305 68.0823 178.949C66.3956 177.555 65.5523 175.832 65.5523 173.779C65.5523 171.469 66.5423 169.654 68.5223 168.334C70.5023 167.014 73.2339 166.354 76.7173 166.354C79.3939 166.354 81.8139 166.757 83.9773 167.564C86.1406 168.37 87.7173 169.452 88.7073 170.809C89.1839 171.432 89.4223 172.055 89.4223 172.679C89.4223 173.559 88.9823 174.274 88.1023 174.824C87.4789 175.227 86.8373 175.429 86.1773 175.429C85.1139 175.429 84.1423 174.989 83.2623 174.109C82.5289 173.412 81.5756 172.88 80.4023 172.514C79.2656 172.147 78.0189 171.964 76.6623 171.964C74.0956 171.964 72.8123 172.569 72.8123 173.779C72.8123 174.255 73.0139 174.677 73.4173 175.044C73.8206 175.41 74.5356 175.795 75.5623 176.199C76.6256 176.602 78.2756 177.152 80.5123 177.849C84.1056 178.949 86.6173 180.159 88.0473 181.479C89.5139 182.799 90.2473 184.54 90.2473 186.704C90.2473 189.014 89.1839 190.884 87.0573 192.314C84.9306 193.707 81.9423 194.404 78.0923 194.404ZM98.3267 194.404C97.19 194.404 96.31 194.11 95.6867 193.524C95.0633 192.937 94.7517 192.13 94.7517 191.104V155.409C94.7517 154.382 95.0633 153.575 95.6867 152.989C96.31 152.402 97.19 152.109 98.3267 152.109C99.4267 152.109 100.307 152.402 100.967 152.989C101.627 153.575 101.957 154.382 101.957 155.409V177.299L118.017 166.959C118.823 166.445 119.557 166.189 120.217 166.189C121.28 166.189 122.05 166.684 122.527 167.674C122.82 168.334 122.967 168.884 122.967 169.324C122.967 170.277 122.398 171.102 121.262 171.799L112.737 177.079C115.963 179.022 118.365 181.075 119.942 183.239C121.555 185.402 122.545 187.95 122.912 190.884C122.948 191.03 122.967 191.25 122.967 191.544C122.967 192.46 122.692 193.175 122.142 193.689C121.628 194.165 120.895 194.404 119.942 194.404C118.952 194.404 118.127 194.202 117.467 193.799C116.843 193.395 116.44 192.809 116.257 192.039C115.707 189.912 115.083 188.189 114.387 186.869C113.727 185.549 112.847 184.412 111.747 183.459C110.683 182.469 109.235 181.46 107.402 180.434L101.957 184.174V191.104C101.957 192.13 101.627 192.937 100.967 193.524C100.307 194.11 99.4267 194.404 98.3267 194.404ZM131.972 162.944C130.615 162.944 129.515 162.577 128.672 161.844C127.865 161.074 127.462 160.084 127.462 158.874C127.462 157.664 127.865 156.692 128.672 155.959C129.515 155.189 130.615 154.804 131.972 154.804C133.328 154.804 134.428 155.189 135.272 155.959C136.152 156.692 136.592 157.664 136.592 158.874C136.592 160.084 136.152 161.074 135.272 161.844C134.428 162.577 133.328 162.944 131.972 162.944ZM132.027 194.404C130.89 194.404 130.01 194.11 129.387 193.524C128.763 192.937 128.452 192.13 128.452 191.104V169.654C128.452 168.627 128.763 167.82 129.387 167.234C130.01 166.647 130.89 166.354 132.027 166.354C133.127 166.354 134.007 166.647 134.667 167.234C135.327 167.82 135.657 168.627 135.657 169.654V191.104C135.657 192.13 135.327 192.937 134.667 193.524C134.007 194.11 133.127 194.404 132.027 194.404ZM163.091 155.244C164.008 155.83 164.466 156.582 164.466 157.499C164.466 157.975 164.32 158.47 164.026 158.984C163.44 159.974 162.706 160.469 161.826 160.469C161.423 160.469 160.91 160.359 160.286 160.139C158.783 159.515 157.353 159.204 155.996 159.204C154.97 159.204 154.145 159.534 153.521 160.194C152.898 160.817 152.586 161.66 152.586 162.724V166.904H158.911C160.048 166.904 160.928 167.16 161.551 167.674C162.211 168.187 162.541 168.884 162.541 169.764C162.541 170.607 162.211 171.285 161.551 171.799C160.928 172.312 160.048 172.569 158.911 172.569H152.586V191.104C152.586 192.13 152.275 192.937 151.651 193.524C151.028 194.11 150.148 194.404 149.011 194.404C147.911 194.404 147.031 194.11 146.371 193.524C145.711 192.937 145.381 192.13 145.381 191.104V172.569H144.171C143.071 172.569 142.191 172.312 141.531 171.799C140.871 171.285 140.541 170.607 140.541 169.764C140.541 168.884 140.853 168.187 141.476 167.674C142.136 167.16 143.035 166.904 144.171 166.904H145.381V162.944C145.381 160.12 146.28 157.847 148.076 156.124C149.91 154.364 152.275 153.484 155.171 153.484C157.041 153.484 158.581 153.63 159.791 153.924C161.001 154.18 162.101 154.62 163.091 155.244ZM178.484 207.604C175.808 207.604 173.369 207.182 171.169 206.339C169.006 205.532 167.338 204.395 166.164 202.929C165.688 202.305 165.449 201.664 165.449 201.004C165.449 200.124 165.871 199.317 166.714 198.584C167.264 198.144 167.869 197.924 168.529 197.924C169.519 197.924 170.473 198.419 171.389 199.409C172.966 201.095 175.276 201.939 178.319 201.939C180.923 201.939 182.884 201.242 184.204 199.849C185.561 198.492 186.239 196.494 186.239 193.854V191.544C185.359 192.387 184.223 193.084 182.829 193.634C181.436 194.147 180.116 194.404 178.869 194.404C174.286 194.404 170.711 193.194 168.144 190.774C165.578 188.317 164.294 184.907 164.294 180.544V169.434C164.294 168.554 164.643 167.82 165.339 167.234C166.036 166.647 166.898 166.354 167.924 166.354C168.914 166.354 169.758 166.665 170.454 167.289C171.151 167.875 171.499 168.59 171.499 169.434V180.544C171.499 183.184 172.141 185.237 173.424 186.704C174.744 188.17 176.559 188.904 178.869 188.904C181.106 188.904 182.848 188.17 184.094 186.704C185.341 185.237 185.964 183.184 185.964 180.544V170.039C185.964 168.865 186.276 167.967 186.899 167.344C187.559 166.684 188.458 166.354 189.594 166.354C190.731 166.354 191.611 166.684 192.234 167.344C192.858 167.967 193.169 168.865 193.169 170.039V192.919C193.169 197.539 191.868 201.132 189.264 203.699C186.698 206.302 183.104 207.604 178.484 207.604Z" fill="#3CC7C6"/>
<defs>
<linearGradient id="paint0_linear_52_15331" x1="67.7039" y1="100.327" x2="88.2307" y2="123.477" gradientUnits="userSpaceOnUse">
<stop stop-color="#009E9D"/>
<stop offset="1" stop-color="#42E4E3"/>
</linearGradient>
</defs>
</svg>
