<svg width="24" height="30" viewBox="0 0 24 30" fill="none" xmlns="http://www.w3.org/2000/svg">
<path d="M8.44435 23.2129L0 23.6496L12.0006 30.0012L8.44435 23.2129Z" fill="url(#paint0_linear_164_4606)"/>
<path d="M23.9998 4.08933C23.9998 1.83009 22.1425 0 19.85 0H4.15026C1.8589 0 0.000244141 1.8303 0.000244141 4.08933V19.5599V23.6492H19.85C22.1427 23.6492 23.9998 21.8191 23.9998 19.5599V4.08933Z" fill="#3CC7C6"/>
<path d="M17.101 10.46C15.8376 10.46 14.682 11.1619 14.114 12.2751L10.2834 19.7834L11.4336 20.4383C11.7775 20.6339 12.2027 20.6339 12.5478 20.4383L19.2817 16.6085C19.6268 16.4131 19.8381 16.05 19.8381 15.6578V11.0083C19.8381 10.7062 19.5883 10.46 19.2817 10.46H17.101Z" fill="white"/>
<path d="M11.113 12.0514C11.39 11.5107 11.1684 10.8495 10.6197 10.5779C10.4638 10.4992 10.2913 10.46 10.1174 10.46H7.95857C7.1895 10.4638 6.56238 9.85191 6.55831 9.09405C6.55831 9.047 6.56089 9.00016 6.56474 8.95332C6.65616 8.23492 7.28221 7.70049 8.01766 7.71441H19.3265C19.4824 7.71441 19.6074 7.58888 19.6062 7.43528C19.6062 7.36671 19.579 7.29961 19.5314 7.24856C19.458 7.17239 19.3743 7.10762 19.2816 7.05571L12.5544 3.22758C12.209 3.03221 11.7855 3.03221 11.4401 3.22758L4.71272 7.05571C4.36737 7.2513 4.15497 7.61419 4.15626 8.00642V15.6576C4.15476 16.0498 4.36737 16.4129 4.71272 16.6083L7.36207 18.1181C7.62885 18.2705 7.97013 18.1789 8.12322 17.9175C8.12857 17.9074 8.13371 17.8972 8.13885 17.8871L11.113 12.0514Z" fill="white"/>
<defs>
<linearGradient id="paint0_linear_164_4606" x1="4.48886" y1="23.7275" x2="9.33438" y2="29.2733" gradientUnits="userSpaceOnUse">
<stop stop-color="#009E9D"/>
<stop offset="1" stop-color="#42E4E3"/>
</linearGradient>
</defs>
</svg>
