<svg width="78" height="23" viewBox="32 6 78 23" fill="none" xmlns="http://www.w3.org/2000/svg">
<path d="M39.634 23.22C39.194 23.22 38.842 23.1027 38.578 22.868C38.314 22.6333 38.182 22.3107 38.182 21.9V9.866H33.936C33.5107 9.866 33.1733 9.77067 32.924 9.58C32.6893 9.37467 32.572 9.096 32.572 8.744C32.572 8.37733 32.6893 8.09867 32.924 7.908C33.1587 7.70267 33.496 7.6 33.936 7.6H45.354C45.794 7.6 46.1313 7.70267 46.366 7.908C46.6007 8.09867 46.718 8.37733 46.718 8.744C46.718 9.096 46.5933 9.37467 46.344 9.58C46.1093 9.77067 45.7793 9.866 45.354 9.866H41.108V21.9C41.108 22.296 40.9687 22.6187 40.69 22.868C40.426 23.1027 40.074 23.22 39.634 23.22ZM49.4003 23.22C48.4909 23.22 47.6843 23.066 46.9803 22.758C46.2909 22.45 45.7483 22.0247 45.3523 21.482C44.9709 20.9247 44.7803 20.2867 44.7803 19.568C44.7803 18.4827 45.2276 17.6173 46.1223 16.972C47.0316 16.3267 48.2563 16.004 49.7963 16.004C51.1309 16.004 52.2016 16.29 53.0083 16.862V16.334C53.0083 15.6447 52.7956 15.1167 52.3703 14.75C51.9449 14.3833 51.3289 14.2 50.5223 14.2C49.3196 14.2 48.2856 14.4567 47.4203 14.97C47.0536 15.1753 46.7383 15.278 46.4743 15.278C46.1516 15.278 45.8656 15.1313 45.6163 14.838C45.4549 14.6327 45.3743 14.42 45.3743 14.2C45.3743 13.8333 45.5649 13.5107 45.9463 13.232C46.4743 12.8507 47.1416 12.55 47.9483 12.33C48.7549 12.11 49.6056 12 50.5003 12C52.2016 12 53.5363 12.3887 54.5043 13.166C55.4869 13.9287 55.9783 14.9847 55.9783 16.334V21.988C55.9783 22.3693 55.8463 22.67 55.5823 22.89C55.3329 23.11 54.9883 23.22 54.5483 23.22C54.0936 23.22 53.7416 23.1173 53.4923 22.912C53.2429 22.7067 53.1183 22.4133 53.1183 22.032V21.79C52.2823 22.7433 51.0429 23.22 49.4003 23.22ZM50.0823 21.196C51.0063 21.196 51.7249 21.0567 52.2383 20.778C52.7663 20.4847 53.0303 20.0813 53.0303 19.568C53.0303 19.084 52.7663 18.6953 52.2383 18.402C51.7103 18.1087 51.0063 17.962 50.1263 17.962C49.3343 17.962 48.7183 18.1013 48.2783 18.38C47.8529 18.6587 47.6403 19.0547 47.6403 19.568C47.6403 20.0813 47.8529 20.4847 48.2783 20.778C48.7036 21.0567 49.3049 21.196 50.0823 21.196ZM63.2369 23.22C60.8756 23.22 59.1376 22.538 58.0229 21.174C57.7882 20.866 57.6709 20.5873 57.6709 20.338C57.6709 19.986 57.8542 19.678 58.2209 19.414C58.4702 19.2527 58.7122 19.172 58.9469 19.172C59.2696 19.172 59.5702 19.3113 59.8489 19.59C60.3476 20.0887 60.8316 20.448 61.3009 20.668C61.7849 20.8733 62.3789 20.976 63.0829 20.976C63.6842 20.976 64.1902 20.8953 64.6009 20.734C65.0116 20.5727 65.2169 20.3747 65.2169 20.14C65.2169 19.8467 65.0482 19.5973 64.7109 19.392C64.3736 19.1867 63.6916 18.9227 62.6649 18.6C61.0516 18.1013 59.9076 17.5807 59.2329 17.038C58.5582 16.4807 58.2209 15.7913 58.2209 14.97C58.2209 14.046 58.6169 13.32 59.4089 12.792C60.2009 12.264 61.2936 12 62.6869 12C63.7576 12 64.7256 12.1613 65.5909 12.484C66.4562 12.8067 67.0869 13.2393 67.4829 13.782C67.6736 14.0313 67.7689 14.2807 67.7689 14.53C67.7689 14.882 67.5929 15.168 67.2409 15.388C66.9916 15.5493 66.7349 15.63 66.4709 15.63C66.0456 15.63 65.6569 15.454 65.3049 15.102C65.0116 14.8233 64.6302 14.6107 64.1609 14.464C63.7062 14.3173 63.2076 14.244 62.6649 14.244C61.6382 14.244 61.1249 14.486 61.1249 14.97C61.1249 15.1607 61.2056 15.3293 61.3669 15.476C61.5282 15.6227 61.8142 15.7767 62.2249 15.938C62.6502 16.0993 63.3102 16.3193 64.2049 16.598C65.6422 17.038 66.6469 17.522 67.2189 18.05C67.8056 18.578 68.0989 19.2747 68.0989 20.14C68.0989 21.064 67.6736 21.812 66.8229 22.384C65.9722 22.9413 64.7769 23.22 63.2369 23.22ZM71.3307 23.22C70.876 23.22 70.524 23.1027 70.2747 22.868C70.0253 22.6333 69.9007 22.3107 69.9007 21.9V7.622C69.9007 7.21133 70.0253 6.88867 70.2747 6.654C70.524 6.41933 70.876 6.302 71.3307 6.302C71.7707 6.302 72.1227 6.41933 72.3867 6.654C72.6507 6.88867 72.7827 7.21133 72.7827 7.622V16.378L79.2067 12.242C79.5293 12.0367 79.8227 11.934 80.0867 11.934C80.512 11.934 80.82 12.132 81.0107 12.528C81.128 12.792 81.1867 13.012 81.1867 13.188C81.1867 13.5693 80.9593 13.8993 80.5047 14.178L77.0947 16.29C78.3853 17.0673 79.346 17.8887 79.9767 18.754C80.622 19.6193 81.018 20.6387 81.1647 21.812C81.1793 21.8707 81.1867 21.9587 81.1867 22.076C81.1867 22.4427 81.0767 22.7287 80.8567 22.934C80.6513 23.1247 80.358 23.22 79.9767 23.22C79.5807 23.22 79.2507 23.1393 78.9867 22.978C78.7373 22.8167 78.576 22.582 78.5027 22.274C78.2827 21.4233 78.0333 20.734 77.7547 20.206C77.4907 19.678 77.1387 19.2233 76.6987 18.842C76.2733 18.446 75.694 18.0427 74.9607 17.632L72.7827 19.128V21.9C72.7827 22.3107 72.6507 22.6333 72.3867 22.868C72.1227 23.1027 71.7707 23.22 71.3307 23.22ZM84.7887 10.636C84.246 10.636 83.806 10.4893 83.4687 10.196C83.146 9.888 82.9847 9.492 82.9847 9.008C82.9847 8.524 83.146 8.13533 83.4687 7.842C83.806 7.534 84.246 7.38 84.7887 7.38C85.3313 7.38 85.7713 7.534 86.1087 7.842C86.4607 8.13533 86.6367 8.524 86.6367 9.008C86.6367 9.492 86.4607 9.888 86.1087 10.196C85.7713 10.4893 85.3313 10.636 84.7887 10.636ZM84.8107 23.22C84.356 23.22 84.004 23.1027 83.7547 22.868C83.5053 22.6333 83.3807 22.3107 83.3807 21.9V13.32C83.3807 12.9093 83.5053 12.5867 83.7547 12.352C84.004 12.1173 84.356 12 84.8107 12C85.2507 12 85.6027 12.1173 85.8667 12.352C86.1307 12.5867 86.2627 12.9093 86.2627 13.32V21.9C86.2627 22.3107 86.1307 22.6333 85.8667 22.868C85.6027 23.1027 85.2507 23.22 84.8107 23.22ZM97.2365 7.556C97.6032 7.79067 97.7865 8.09133 97.7865 8.458C97.7865 8.64867 97.7279 8.84667 97.6105 9.052C97.3759 9.448 97.0825 9.646 96.7305 9.646C96.5692 9.646 96.3639 9.602 96.1145 9.514C95.5132 9.26467 94.9412 9.14 94.3985 9.14C93.9879 9.14 93.6579 9.272 93.4085 9.536C93.1592 9.78533 93.0345 10.1227 93.0345 10.548V12.22H95.5645C96.0192 12.22 96.3712 12.3227 96.6205 12.528C96.8845 12.7333 97.0165 13.012 97.0165 13.364C97.0165 13.7013 96.8845 13.9727 96.6205 14.178C96.3712 14.3833 96.0192 14.486 95.5645 14.486H93.0345V21.9C93.0345 22.3107 92.9099 22.6333 92.6605 22.868C92.4112 23.1027 92.0592 23.22 91.6045 23.22C91.1645 23.22 90.8125 23.1027 90.5485 22.868C90.2845 22.6333 90.1525 22.3107 90.1525 21.9V14.486H89.6685C89.2285 14.486 88.8765 14.3833 88.6125 14.178C88.3485 13.9727 88.2165 13.7013 88.2165 13.364C88.2165 13.012 88.3412 12.7333 88.5905 12.528C88.8545 12.3227 89.2139 12.22 89.6685 12.22H90.1525V10.636C90.1525 9.50667 90.5119 8.59733 91.2305 7.908C91.9639 7.204 92.9099 6.852 94.0685 6.852C94.8165 6.852 95.4325 6.91067 95.9165 7.028C96.4005 7.13067 96.8405 7.30667 97.2365 7.556ZM103.394 28.5C102.323 28.5 101.348 28.3313 100.468 27.994C99.6024 27.6713 98.9351 27.2167 98.4658 26.63C98.2751 26.3807 98.1798 26.124 98.1798 25.86C98.1798 25.508 98.3484 25.1853 98.6858 24.892C98.9058 24.716 99.1478 24.628 99.4118 24.628C99.8078 24.628 100.189 24.826 100.556 25.222C101.186 25.8967 102.11 26.234 103.328 26.234C104.369 26.234 105.154 25.9553 105.682 25.398C106.224 24.8553 106.496 24.056 106.496 23V22.076C106.144 22.4133 105.689 22.692 105.132 22.912C104.574 23.1173 104.046 23.22 103.548 23.22C101.714 23.22 100.284 22.736 99.2578 21.768C98.2311 20.7853 97.7178 19.4213 97.7178 17.676V13.232C97.7178 12.88 97.8571 12.5867 98.1358 12.352C98.4144 12.1173 98.7591 12 99.1698 12C99.5658 12 99.9031 12.1247 100.182 12.374C100.46 12.6087 100.6 12.8947 100.6 13.232V17.676C100.6 18.732 100.856 19.5533 101.37 20.14C101.898 20.7267 102.624 21.02 103.548 21.02C104.442 21.02 105.139 20.7267 105.638 20.14C106.136 19.5533 106.386 18.732 106.386 17.676V13.474C106.386 13.0047 106.51 12.6453 106.76 12.396C107.024 12.132 107.383 12 107.838 12C108.292 12 108.644 12.132 108.894 12.396C109.143 12.6453 109.268 13.0047 109.268 13.474V22.626C109.268 24.474 108.747 25.9113 107.706 26.938C106.679 27.9793 105.242 28.5 103.394 28.5Z" fill="currentColor"/>
</svg>
